# xmcd CD database file
#
# Track frame offsets:
#	150
#	25129
#	35438
#	53663
#	67942
#	79857
#	107735
#	124153
#	151882
#	167108
#	184675
#	206903
#	225423
#
# Disc length: 3281 seconds
#
# Revision: 0
# Processed by: cddbd v1.5.2PL0 Copyright (c) Steve Scherf et al.
# Submitted via: CDex 1.51
#
DISCID=a20ccf0d
DTITLE=Wayne Hancock - Live at Maintenance Shop - Ames, IA - 09122003
DYEAR=2003
DGENRE=Country
TTITLE0=Trifle On You
TTITLE1=No Lovin' Tonight
TTITLE2=Folsom Prison Blues
TTITLE3=Life On The Road
TTITLE4=Tag Along
TTITLE5=Thunderstorms And Neon Signs
TTITLE6=Walkin The Dog
TTITLE7=Milk Cow Blues
TTITLE8=Do Re Mi
TTITLE9=Cannonball Rag
TTITLE10=Wild Free and Reckless
TTITLE11=Wine Spodeeodee
TTITLE12=That's What Daddy Wants
EXTD=YEAR: 2003
EXTT0=
EXTT1=
EXTT2=
EXTT3=
EXTT4=
EXTT5=
EXTT6=
EXTT7=
EXTT8=
EXTT9=
EXTT10=
EXTT11=
EXTT12=
PLAYORDER=
